<svg width="19" height="18" viewBox="0 0 19 18" fill="none" xmlns="http://www.w3.org/2000/svg"><path d="M13.478 9.834c.656 0 1.234-.342 1.531-.859l3.133-5.408c.324-.55-.096-1.233-.761-1.233H4.43L3.608.667H.747v1.667h1.75l3.15 6.325-1.181 2.033c-.64 1.117.2 2.475 1.53 2.475h10.5V11.5h-10.5l.963-1.666h6.52zM5.262 4h10.631l-2.415 4.167H7.336L5.262 4zm.735 10c-.963 0-1.741.75-1.741 1.667s.778 1.667 1.74 1.667c.963 0 1.75-.75 1.75-1.667S6.96 14 5.997 14zm8.75 0c-.963 0-1.741.75-1.741 1.667s.778 1.667 1.74 1.667c.963 0 1.75-.75 1.75-1.667S15.71 14 14.747 14z" fill="#A9AAB2"/></svg>